<?xml version="1.0" encoding="UTF-8" standalone="no"?>
<!-- Created with Inkscape (http://www.inkscape.org/) -->

<svg
   xmlns:dc="http://purl.org/dc/elements/1.1/"
   xmlns:cc="http://creativecommons.org/ns#"
   xmlns:rdf="http://www.w3.org/1999/02/22-rdf-syntax-ns#"
   xmlns:svg="http://www.w3.org/2000/svg"
   xmlns="http://www.w3.org/2000/svg"
   version="1.1"
   width="670.1911"
   height="584.63092"
   id="svg2">
  <defs
     id="defs4" />
  <metadata
     id="metadata7">
    <rdf:RDF>
      <cc:Work
         rdf:about="">
        <dc:format>image/svg+xml</dc:format>
        <dc:type
           rdf:resource="http://purl.org/dc/dcmitype/StillImage" />
        <dc:title></dc:title>
      </cc:Work>
    </rdf:RDF>
  </metadata>
  <g
     transform="translate(-44.4955,-234.1298)"
     id="layer1">
    <g
       transform="translate(-845.71427,134.28572)"
       id="g2996">
      <path
         d="m 1169.9821,99.848208 c -69.6378,0 -85.3057,0.285442 -95.625,1.593752 -47.3808,6.00705 -86.70657,23.16501 -112.99997,49.34375 -25.75847,25.6461 -37.19157,54.93423 -37.15625,95.0625 0.035,39.70375 10.79684,68.86768 33.46875,90.5625 22.9032,21.9162 52.64887,32.86108 93.34377,34.34375 l 17,0.59375 0.5,19 c 0.3204,12.17608 0.9107,19.77051 1.6875,21.125 0.6667,1.16248 3.5029,3.85001 6.2812,5.96875 2.7782,2.11873 6.1886,5.50346 7.5938,7.53125 2.3252,3.35525 5.4375,11.54827 5.4375,14.34375 0,0.77189 -6.9226,1.50228 -21.75,2.3125 -99.17942,5.41948 -160.61496,39.05588 -174.65627,95.65625 -3.81321,15.37104 -3.87032,38.0912 -0.125,54.0625 11.29505,48.1658 53.36026,79.6962 120.62497,90.4375 17.9867,2.8723 17.5885,2.8545 51.4063,2.5625 23.0543,-0.1991 33.5477,-0.67865 40.9687,-1.90625 42.2245,-6.9848 71.5885,-18.14825 96.7188,-36.78125 21.0271,-15.5906 35.9616,-36.1654 44.25,-60.9375 5.5397,-16.5568 6.9974,-26.64658 6.9375,-47.875 -0.047,-16.64888 -0.3262,-19.45425 -2.6563,-28.15625 -3.4306,-12.81173 -8.2582,-23.78915 -15.25,-34.53125 -12.1393,-18.65041 -22.6317,-29.40205 -54.9687,-56.3125 -22.2825,-18.54322 -30.6818,-26.97595 -34.1563,-34.4375 -4.5365,-9.74208 -2.3208,-19.77829 6.5938,-29.8125 2.3278,-2.62012 11.0721,-10.53315 19.4062,-17.59375 32.8635,-27.84191 44.6295,-44.41061 51.9063,-72.9375 2.032,-7.96572 2.2273,-11.01856 2.1875,-35.71875 -0.059,-36.64768 -2.919,-52.41324 -12.4375,-68.53125 -4.7446,-8.03432 -16.2453,-19.09091 -25.2813,-24.3125 -3.6855,-2.12969 -6.4733,-4.2563 -6.1875,-4.71875 0.9086,-1.47018 7.482,-2.85488 25.9688,-5.46875 31.9356,-4.5154 42.4434,-8.70517 45.5625,-18.15625 2.2108,-6.698792 7.622,-6.312502 -84.5938,-6.312502 z m 258.1563,0 c -11.2889,0 -16.6027,0.384012 -17.4375,1.218752 -0.9046,0.90466 -1.1875,14.93333 -1.1875,57 l 0,55.78125 -55.9063,0 c -50.0447,0 -55.9565,0.17747 -56.5,1.59375 -0.3339,0.86998 -0.5937,8.49677 -0.5937,16.9375 0,12.61829 0.2705,15.61421 1.5625,16.90625 1.3905,1.39043 7.8983,1.5625 56.5,1.5625 l 54.9375,0 0,53.75 c 0.01,29.5625 0.2901,54.78133 0.625,56.03125 0.6077,2.26792 0.6273,2.27201 18.2187,2 l 17.6563,-0.28125 0.25,-55.75 0.25,-55.75 55.25,0 c 33.0163,-0.009 55.8535,-0.40274 56.75,-0.96875 1.2021,-0.75891 1.5418,-4.00249 1.8125,-16.375 0.2211,-10.10169 -0.049,-16.16372 -0.7813,-17.53125 -1.1115,-2.07687 -1.4455,-2.087 -56.8125,-2.34375 l -55.7187,-0.28125 0.375,-55.03125 c 0.369,-51.01979 0.2816,-55.1559 -1.3125,-56.75 -1.4846,-1.48461 -3.925,-1.718752 -17.9375,-1.718752 z m -368.4063,33.218752 c 43.9724,-1.04625 90.0383,53.13159 89.9063,118.625 -0.058,28.84813 -7.8503,50.85776 -23.625,66.78125 -9.1061,9.19203 -16.6891,13.48971 -28,15.875 -8.4116,1.77387 -12.8028,1.75182 -21.9375,-0.0625 -14.0398,-2.7885 -28.8723,-11.72729 -41.5938,-25.0625 -22.3773,-23.45678 -35.26672,-57.23542 -35.28122,-92.375 -0.014,-33.00392 11.13682,-59.49114 31.03122,-73.6875 9.3329,-6.65982 19.3525,-9.85231 29.5,-10.09375 z m 24.9063,334.8125 c 41.6988,-0.0511 78.6655,15.13811 98.9687,40.6875 23.5772,29.66945 20.4622,66.74026 -8,95.34375 -21.0559,21.1604 -49.9854,33.9938 -85.3125,37.875 -9.1547,1.0058 -21.9448,1.18435 -29.7812,0.40625 -44.8737,-4.4554 -80.47642,-25.09465 -94.62502,-54.84375 -5.3245,-11.19537 -6.69765,-18.16258 -6.15625,-31.46875 0.3968,-9.75313 0.9562,-12.83854 3.625,-20.03125 7.7641,-20.92566 25.66425,-39.27463 50.78127,-52.0625 20.9897,-10.68648 43.9758,-15.87378 70.5,-15.90625 z"
         id="rect3014"
         style="color:#000000;fill:#ffffff;fill-opacity:1;fill-rule:nonzero;stroke:none;stroke-width:10;marker:none;visibility:visible;display:inline;overflow:visible;enable-background:accumulate" />
    </g>
  </g>
</svg>
