<svg xmlns="http://www.w3.org/2000/svg" xmlns:xlink="http://www.w3.org/1999/xlink" version="1.1" x="0px" y="0px" width="100px" height="100px" viewBox="0 0 100 100" enable-background="new 0 0 100 100" xml:space="preserve" fill="#FFF">
<g id="Captions">
</g>
<g id="Your_Icon">
	<g >
		<path d="M34.699,88.674c-10.606,0-20.904-3.021-29.781-8.737c-1.169-0.754-1.668-2.213-1.203-3.524    c0.464-1.312,1.765-2.131,3.153-1.98c0.01,0.001,1.396,0.146,3.555,0.146c4.143,0,10.937-0.516,16.737-3.37    c-7.56-3.007-11.254-9.547-12.236-13.324c-0.255-0.98,0.003-2.018,0.674-2.763c-6.046-5.185-7.478-12.307-7.182-16.311    c0.077-1.047,0.696-1.977,1.631-2.453c0.252-0.128,0.518-0.219,0.789-0.271c-4.192-7.843-1.902-16.218,0.556-20.399    c0.484-0.823,1.331-1.367,2.281-1.464c0.948-0.101,1.89,0.264,2.53,0.972c8.245,9.117,17.274,13.5,23.397,15.57    c3.263,1.104,6.075,1.688,8.104,1.999c-0.002-0.128-0.003-0.257-0.003-0.385c0-11.608,9.443-21.053,21.051-21.053    c11.212,0,21.047,9.838,21.047,21.053C89.799,64.473,66.111,88.674,34.699,88.674z M18.583,79.965    c5.145,1.786,10.583,2.709,16.117,2.709c13.377,0,25.709-4.927,34.726-13.874c9.27-9.197,14.374-22.132,14.374-36.421    c0-7.105-6.435-15.053-15.047-15.053c-8.299,0-15.051,6.753-15.051,15.053c0,1.05,0.108,2.099,0.321,3.118    c0.186,0.889-0.041,1.812-0.615,2.515c-0.575,0.702-1.419,1.129-2.344,1.1c-0.822-0.006-19.171-0.34-36.002-16.484    c-1.044,4.103-1.177,10.69,5.873,16.082c0.993,0.759,1.398,2.055,1.038,3.25c-0.361,1.196-1.438,2.045-2.685,2.128    c0,0-0.177,0.012-0.5,0.012c-0.754,0-2.123-0.064-3.77-0.431c1.074,3.581,3.955,8.377,11.615,10.577    c1.335,0.384,2.232,1.635,2.168,3.022c-0.064,1.388-1.072,2.55-2.438,2.809c-0.081,0.016-1.617,0.304-3.553,0.422    c1.953,2.737,5.548,5.891,11.85,6.27c1.189,0.071,2.224,0.84,2.635,1.958s0.123,2.373-0.736,3.199    C31.416,76.866,24.522,79.049,18.583,79.965z"/>
	</g>
	<g>
		<path d="M85.386,28.35c-1.008,0-1.991-0.507-2.558-1.428c-0.868-1.411-0.429-3.259,0.982-4.127    c0.419-0.258,0.823-0.534,1.214-0.826c-0.987,0.261-2.012,0.479-3.053,0.632c-1.641,0.249-3.163-0.892-3.404-2.531    s0.893-3.164,2.531-3.404c5.51-0.811,10.705-4.05,10.757-4.082c1.068-0.676,2.447-0.604,3.444,0.171    c0.997,0.777,1.401,2.095,1.009,3.296c-1.605,4.922-4.928,9.132-9.354,11.854C86.465,28.206,85.922,28.35,85.386,28.35z"/>
	</g>
	<g>
		<path d="M86.801,37.895c-0.92,0-1.828-0.422-2.416-1.219c-0.983-1.333-0.7-3.212,0.633-4.195c0.098-0.072,0.194-0.145,0.291-0.218    c-0.492-0.435-0.845-1.033-0.967-1.73c-0.285-1.632,0.807-3.187,2.438-3.472c3.353-0.586,5.022-1.624,5.039-1.635    c1.199-0.758,2.783-0.584,3.771,0.434c0.988,1.017,1.147,2.575,0.356,3.753c-1.998,2.974-4.477,5.563-7.367,7.696    C88.044,37.704,87.42,37.895,86.801,37.895z"/>
	</g>
</g>
</svg>